<?xml version="1.0" encoding="utf-8"?>
<svg xmlns="http://www.w3.org/2000/svg" viewBox="0 0 150 121.2">
  <style type="text/css">.cls-0 {fill:#111010;}
.cls-1 {fill:#CEB280;}</style>
  <path class="cls-1" d="m67.2 24.8c-0.7-8.4-5.2-19.4-18-21.9-3.6-0.6-9.5-0.9-14.2 0.7-10.6 3.5-13.7 12.4-14.7 20.5-0.3 1.7-0.3 2.5-1 3-1.7 1.7-4.1 1.9-4.3 4.9 0.3 3 3.4 3.7 4.4 4.6l2.5-3.3-1.1-1.1 1.9-1.1c5.6-2.1 12.4-2.7 18.2-2.9 6.3-0.2 17.6 0.2 23.4 2.5l1.9 1.1-1.1 1.3 2.6 3.4c1.7-0.8 4-1.3 4.5-4.1-0.1-3.1-3.4-4-4.7-5.3l-5.7-4.1c1.4 0.1 4.7 0.9 5.2 1.8h0.2z"/>
  <path class="cls-1" d="m49.2 30.4c-2.5-0.5-6.9-0.7-12.2 0.1-3.1 0.2-12.4 6-12.4 17.5 0 6.1 4.5 18.3 18.8 18.3 9 0 18.7-6.6 18.7-18.3 0-9.1-6.9-16-12.9-17.6zm-5.7 26.9c-4.8 0-9.7-3.4-9.7-9.3 0-3.9 3-9.6 9.7-9.6 4.7 0 9.5 3.5 9.5 9.7 0 4.3-3.5 9.2-9.5 9.2z"/>
  <path class="cls-1" d="m38.7 70.8c-15.5 0-34.6 13.1-36.1 37.3v10.4h48.8v-9h-40.4c0.9-12.2 10.3-28.8 26.8-29.6l24.7-0.1 4.6-7.9-28.4-1.1z"/>
  <path class="cls-1" d="m106.8 2.5c-12 0.3-22.3 6.8-23.6 21.9-0.3 3.1-0.8 2.7-3.8 4.6-0.8 0.8-1.5 2.4-1.3 3.5 0.6 2.3 3 3.2 4.3 4l2.3-3.2-0.8-1.1 1.7-1.1c5.8-1.9 11.3-2.9 19.7-3 5.9-0.1 16.4 0.5 21.7 2.9l2.7 1.1-1.2 1.2 2.8 3.3c1.5-0.7 4.3-2 4.5-4.1 0-2-1.3-3.3-3-4.3l-7.8-5.3c2.1 0.3 4.1 1.2 5.5 1.9-0.9-11.6-7.6-22.3-23.7-22.3z"/>
  <path class="cls-1" d="m114.5 30.7c-2.3-0.4-6.2-1.2-13.9-0.2-3.7 0.2-12.7 6-12.7 17.5 0 6.5 5.2 18.3 18.4 18.3 8.2 0 18.9-5 18.9-18.3 0-8-5.2-15-10.7-17.3zm-8.2 26.6c-4.7 0-9.4-3.8-9.4-9.3 0-3 2.3-9.6 9.5-9.6 4.5 0 9.7 3.1 9.7 9.7 0 4.3-3.7 9.2-9.8 9.2z"/>
  <path class="cls-1" d="m105.5 70c-21.5 0-41.4 17.1-41.4 41v7.6h83.7v-7.6c0-17-10.8-40.6-42.3-41zm-31.8 39.4c1.3-16.1 13.7-30.4 32.2-30.4 21 0 32.2 15.6 33 30.4h-65.2z"/>
</svg>