<?xml version="1.0" encoding="utf-8"?>
<svg xmlns="http://www.w3.org/2000/svg" viewBox="0 0 190 39.3">
  <style type="text/css">.cls-0 {fill:#151515;}
.cls-1 {fill:#CEB280;}</style>
  <path class="cls-1" d="m15.9 1.9h-13.3c-0.6 0-0.8 0.4-0.8 0.8v4.2c0 0.5 0.2 0.8 0.8 0.8h4.2v29.1c0 0.2 0.1 0.2 0.7 0.2h3.7c0.6 0 0.5-0.3 0.5-0.8v-28.6h4.2c0.6 0 0.8-0.2 0.8-0.8v-4.1c0-0.5-0.2-0.8-0.8-0.8z"/>
  <path class="cls-1" d="m33.4 26.7c1.7-0.7 2.7-2.3 2.7-5v-8.3c0-3.9-2.1-6.4-5.7-6.4h-10.1c-0.5 0-0.7 0.3-0.7 0.8v28.5c0 0.5 0.2 0.7 0.7 0.7h3.7c0.5 0 0.8-0.2 0.8-0.7v-8.6h3.5l2.1 8.7c0.1 0.4 0.3 0.6 0.8 0.6h3.8c0.5 0 1-0.1 0.8-0.8l-2.4-9.5zm-2.8-6.1c0 1-0.5 1.7-1.6 1.7h-4.1v-9.8h4.1c1.1 0 1.6 0.6 1.6 1.7v6.4z"/>
  <path class="cls-1" d="m56.2 7h-15.2c-0.5 0-0.8 0.3-0.8 0.8v28.5c0 0.5 0.3 0.8 0.8 0.8h15.2c0.3 0 0.7 0.1 0.7-0.8v-3.7c0-0.7-0.5-0.9-0.7-0.9h-10.1v-6.9h7.6c0.6 0 0.8-0.2 0.8-0.8v-4c0-0.6-0.2-0.8-0.8-0.8h-7.6v-6.7h10.1c0.6 0 0.8-0.4 0.8-0.9v-3.8c0-0.6-0.3-0.8-0.8-0.8z"/>
  <path class="cls-1" d="m78.1 6.9h-3.7c-0.5 0-0.8 0.3-0.8 0.8v15.8l-7.3-16c-0.1-0.4-0.3-0.6-0.8-0.6h-3.6c-0.5 0-0.9 0.2-0.9 0.8v28.7c0 0.5 0.3 0.7 0.8 0.7h3.9c0.5 0 0.8-0.2 0.8-0.7v-16.3l7.4 16.4c0.2 0.4 0.4 0.6 0.9 0.6h3.1c0.5 0 0.9-0.2 0.9-0.7v-28.7c0-0.6-0.2-0.8-0.7-0.8z"/>
  <path class="cls-1" d="m93.4 6.9h-4.8c-3.5 0-5.7 2.1-5.7 6v18.6c0 3.9 2.2 5.5 5.7 5.6h4.8c3.5 0 5.5-1.7 5.5-5.6v-4.8c0-0.6-0.2-0.8-0.8-0.8h-3.3c-0.6 0-0.9 0.3-0.9 0.9v3.4c0 1.2-0.6 1.5-1.5 1.5h-2.6c-0.9 0-1.6-0.3-1.6-1.5v-16.1c0-1.1 0.7-1.6 1.6-1.6h2.4c1.1 0 1.7 0.5 1.7 1.6v3.4c0 0.6 0.3 0.8 0.8 0.8h3.4c0.6 0 0.8-0.2 0.8-0.8v-4.6c0-3.9-2-6-5.5-6z"/>
  <path class="cls-1" d="m119.1 6.9h-3.8c-0.5 0-0.8 0.3-0.8 0.8v11.7h-5.6v-11.7c0-0.5-0.3-0.8-0.8-0.8h-3.9c-0.6 0-0.9 0.3-0.9 0.8v28.7c0 0.5 0.3 0.7 0.8 0.7h3.8c0.5 0 1-0.1 1-0.7v-11.5h5.6v11.5c0 0.7 0.6 0.7 1.1 0.7h3.5c0.5 0 0.8-0.1 0.8-0.7v-28.7c0-0.5-0.2-0.8-0.8-0.8z"/>
  <path class="cls-1" d="m135.5 2h-5.1c-3 0-5.6 1.6-5.6 5.6v23.8c0 4.2 2.6 5.7 5.3 5.7h5.4c3.4 0 5.9-1.4 5.9-5.7v-4.8c0-0.6-0.3-0.9-0.9-0.9h-3.7c-0.5 0-0.9 0.3-0.9 0.9v3.5c0 1.2-0.5 1.6-1.5 1.6h-2.2c-0.9 0-1.7-0.3-1.7-1.6v-20.8c0-1.1 0.6-1.6 1.7-1.6h2.1c1.1 0 1.6 0.5 1.6 1.6v3.4c0 0.6 0.4 0.9 1 0.9h3.6c0.6 0 0.9-0.2 0.9-0.9v-4.9c0-3.8-2-5.8-5.9-5.8z"/>
  <path class="cls-1" d="m156.1 6.9h-4.8c-3.5 0-5.7 1.9-5.7 5.8v18.6c0 3.9 2.2 5.8 5.2 5.8h5.3c3 0 6.1-1.2 6.1-5.8v-18.6c0-3.9-2.6-5.8-6.1-5.8zm0.7 23c0 1.5-0.5 1.9-1.7 1.9h-2.5c-1.2 0-1.8-0.4-1.8-1.9v-15.6c0-1.1 0.6-1.8 1.7-1.8h2.3c1.4 0 2 0.5 2 1.8v15.6z"/>
  <path class="cls-1" d="m187.5 6.9h-4.7c-0.6 0-0.7 0.3-0.8 0.7l-4.2 18.6-4.1-18.6c-0.1-0.4-0.2-0.7-0.8-0.7h-5.4c-0.5 0-1 0.2-1 0.8v28.7c0 0.5 0.3 0.7 0.8 0.7h3.7c0.5 0 0.8-0.1 0.9-0.7l-0.1-17 4.1 17.1c0.1 0.4 0.3 0.6 0.8 0.6h2.2c0.5 0 0.7-0.2 0.8-0.6l3.7-17.2 0.1 17.1c0 0.6 0.3 0.7 0.8 0.7h3.4c0.5 0 0.7-0.2 0.7-0.7v-28.7c0-0.6-0.3-0.8-0.9-0.8z"/>
</svg>